<svg xmlns="http://www.w3.org/2000/svg" viewBox="0 0 64 64">
  <defs>
    <linearGradient id="g" x1="0" y1="0" x2="0" y2="1">
      <stop offset="0%" stop-color="#2E6B9E"/>
      <stop offset="100%" stop-color="#1A3A5C"/>
    </linearGradient>
  </defs>
  <path d="M32 2L6 16v20c0 14.4 11.1 27.2 26 30 14.9-2.8 26-15.6 26-30V16L32 2z" fill="url(#g)"/>
  <path d="M36.5 19h-9.7c-3.1 0-5.6 2.5-5.6 5.6v1.2c0 3.1 2.5 5.6 5.6 5.6h4.4c1.5 0 2.8 1.2 2.8 2.8v1.2c0 1.5-1.2 2.8-2.8 2.8H22v4.8h9.7c3.1 0 5.6-2.5 5.6-5.6v-1.2c0-3.1-2.5-5.6-5.6-5.6h-4.4c-1.5 0-2.8-1.2-2.8-2.8v-1.2c0-1.5 1.2-2.8 2.8-2.8H42V19h-5.5z" fill="#FFFFFF"/>
</svg>
